<svg width="273" height="352" viewBox="0 0 273 352" fill="none" xmlns="http://www.w3.org/2000/svg">
<path d="M246.783 182.412C246.439 220.175 270.098 249.012 272.566 280.268C275.037 311.883 256.497 346.094 229.217 351.104C201.941 356.474 166.284 332.639 130.777 323.906C95.2702 315.173 60.2725 321.537 43.95 307.353C27.6274 293.169 30.1617 258.616 22.0874 224.013C13.6535 189.415 -5.20749 154.944 2.09367 129.682C9.57283 104.238 43.2177 88.3609 77.311 63.3085C111.586 38.4337 146.128 4.20575 182.592 0.700642C219.235 -2.98646 257.618 23.8717 264.817 60.8228C271.656 97.7782 247.128 144.649 246.783 182.412Z" fill="#FF0066" fill-opacity="0.4"/>
</svg>
