<svg width="229" height="298" viewBox="0 0 229 298" fill="none" xmlns="http://www.w3.org/2000/svg">
<path d="M216.995 111.81C243.153 139.049 280.231 143.122 303.849 163.742C327.721 184.616 338.387 222.037 322.388 244.693C306.642 267.604 264.485 275.496 232.994 294.079C201.503 312.662 180.933 341.683 159.346 342.956C137.76 344.229 115.411 317.754 85.4441 298.661C55.223 279.823 17.637 268.368 5.19303 245.203C-7.25096 221.783 5.70095 186.907 12.5578 145.158C19.6687 103.41 20.4306 54.7875 44.0488 26.7852C67.667 -1.47155 113.888 -9.10851 144.871 12.275C175.6 33.9131 190.837 84.5716 216.995 111.81Z" fill="#FF0066" fill-opacity="0.4"/>
</svg>
