<svg width="440" height="496" viewBox="0 0 440 496" fill="none" xmlns="http://www.w3.org/2000/svg">
<path d="M427.995 309.81C454.153 337.049 491.231 341.122 514.849 361.742C538.721 382.616 549.387 420.037 533.388 442.693C517.642 465.604 475.485 473.496 443.994 492.079C412.503 510.662 391.933 539.683 370.346 540.956C348.76 542.229 326.411 515.754 296.444 496.661C266.223 477.823 228.637 466.368 216.193 443.203C203.749 419.783 216.701 384.907 223.558 343.158C230.669 301.41 231.431 252.787 255.049 224.785C278.667 196.528 324.888 188.891 355.871 210.275C386.6 231.913 401.837 282.572 427.995 309.81Z" fill="#FF0066" fill-opacity="0.4"/>
<path d="M52.2374 42.5774C65.0287 63.9482 72.1737 92.3311 61.3866 103.521C50.6979 114.693 22.077 108.671 -0.917057 96.6574C-23.795 84.7243 -41.0639 66.7003 -39.4956 48.3313C-37.9095 30.0607 -17.6201 11.266 1.70304 9.1061C21.1246 6.92848 39.4461 21.2065 52.2374 42.5774Z" fill="#FF0066" fill-opacity="0.4"/>
</svg>
