<svg width="410" height="281" viewBox="0 0 410 281" fill="none" xmlns="http://www.w3.org/2000/svg">
<path d="M385.986 173.349C363.727 198.797 304.359 187.549 296.816 156.545C289.274 125.54 333.597 74.5994 363.358 80.3353C393.16 85.8912 408.05 147.856 385.986 173.349Z" fill="#FF0066" fill-opacity="0.4"/>
<path d="M80.3749 225.803C89.7956 245.257 90.8005 277.682 81.631 280.734C72.4615 283.913 53.1176 257.846 42.5664 244.24C31.8895 230.635 29.8798 229.49 30.0054 223.132C30.131 216.775 32.392 205.204 42.5664 202.533C52.7407 199.99 70.8285 206.348 80.3749 225.803Z" fill="#FF0066" fill-opacity="0.4"/>
<path d="M131.213 18.6262C157.925 33.405 195.711 48.8357 210.044 78.8279C224.594 108.603 215.69 153.156 189.196 162.067C162.702 171.195 118.184 145.115 75.4021 143.594C32.4036 142.072 -9.07487 165.327 -24.9279 156.416C-40.7809 147.288 -31.0085 105.777 -33.6145 61.8758C-36.0033 17.7569 -50.5533 -28.5353 -34.7003 -43.3141C-18.8473 -58.0928 27.4088 -41.1408 58.4633 -25.71C89.3007 -10.2793 104.719 3.84749 131.213 18.6262Z" fill="#FF0066" fill-opacity="0.4"/>
</svg>
